<?xml version="1.0" standalone="no"?><!DOCTYPE svg PUBLIC "-//W3C//DTD SVG 1.1//EN" "http://www.w3.org/Graphics/SVG/1.1/DTD/svg11.dtd"><svg t="1590991780621" class="icon" viewBox="0 0 1024 1024" version="1.1" xmlns="http://www.w3.org/2000/svg" p-id="4500" xmlns:xlink="http://www.w3.org/1999/xlink" width="48" height="48"><defs><style type="text/css"></style></defs><path d="M674.909091 823.854545c0 83.781818 69.818182 153.6 153.6 153.6 83.781818 0 153.6-69.818182 153.6-153.6 0-83.781818-69.818182-153.6-153.6-153.6-41.890909 0-79.127273 13.963636-107.054546 46.545455l-260.654545-162.909091c9.309091-23.272727 13.963636-51.2 13.963636-74.472727 0-27.927273-4.654545-51.2-13.963636-79.127273l242.036364-139.636364c23.272727 27.927273 60.509091 46.545455 97.745454 46.545455 69.818182 0 130.327273-55.854545 130.327273-130.327273S865.745455 46.545455 795.927273 46.545455s-130.327273 55.854545-130.327273 130.327272v13.963637L414.254545 335.127273c-41.890909-46.545455-97.745455-69.818182-158.254545-69.818182C139.636364 265.309091 46.545455 358.4 46.545455 474.763636s93.090909 209.454545 209.454545 209.454546c60.509091 0 116.363636-27.927273 158.254545-69.818182l260.654546 167.563636v41.890909z m148.945454-74.472727c41.890909 0 79.127273 37.236364 79.127273 79.127273s-37.236364 79.127273-79.127273 79.127273-79.127273-37.236364-79.127272-79.127273 37.236364-79.127273 79.127272-79.127273z m-27.927272-628.363636c32.581818 0 55.854545 23.272727 55.854545 55.854545S828.509091 232.727273 795.927273 232.727273s-55.854545-23.272727-55.854546-55.854546 23.272727-55.854545 55.854546-55.854545zM256 619.054545c-79.127273 0-139.636364-60.509091-139.636364-139.636363s60.509091-139.636364 139.636364-139.636364 139.636364 60.509091 139.636364 139.636364-60.509091 139.636364-139.636364 139.636363z" p-id="4501" fill="#bfbfbf"></path></svg>